<?xml version="1.0" encoding="utf-8"?>
<svg xmlns="http://www.w3.org/2000/svg" viewBox="0 0 512 512">
    <circle cx="256" cy="256" r="256" fill="#010002"/>
    <path fill="#ffffff" transform="translate(112, 112) scale(12)" d="M23.193 7.879c0-5.206-3.411-6.732-3.411-6.732C18.062.357 15.108.025 12.041 0h-.076c-3.068.025-6.02.357-7.74 1.147 0 0-3.411 1.526-3.411 6.732 0 1.192-.023 2.618.015 4.129.124 5.092.934 10.11 5.641 11.355 2.17.574 4.034.695 5.535.612 2.722-.151 4.25-.97 4.25-.97l-.09-1.97s-1.945.613-4.13.539c-2.165-.074-4.449-.233-4.799-2.891a5.499 5.499 0 0 1-.048-.745s2.125.52 4.818.643c1.646.075 3.19-.097 4.758-.288 3.007-.359 5.625-2.212 5.954-3.905.517-2.665.475-6.507.475-6.507zm-4.024 6.709h-2.497V8.469c0-1.29-.543-1.944-1.628-1.944-1.2 0-1.802.776-1.802 2.312v3.349h-2.483v-3.35c0-1.536-.602-2.312-1.802-2.312-1.085 0-1.628.655-1.628 1.944v6.119H4.827V8.309c0-1.289.328-2.313.987-3.07.68-.758 1.569-1.146 2.672-1.146 1.279 0 2.246.491 2.886 1.474L12 6.585l.628-1.018c.64-.983 1.607-1.474 2.886-1.474 1.103 0 1.992.388 2.671 1.146.66.757.988 1.781.988 3.07v6.279h-.004z"/>
</svg>
